<?xml version="1.0" encoding="UTF-8"?><svg id="Layer_1" xmlns="http://www.w3.org/2000/svg" viewBox="0 0 60.05 89.06"><defs><style>.cls-1{fill:#1d71b8;}.cls-2{fill:#36a9e1;}</style></defs><rect class="cls-1" x="51.47" y="71.9" width="8.58" height="8.58"/><rect class="cls-1" x="8.57" y="80.48" width="42.9" height="8.58"/><rect class="cls-1" x="0" y="71.9" width="8.57" height="8.58"/><polygon class="cls-2" points="51.47 .42 51.47 9 60.05 9 60.05 71.9 51.47 71.9 51.47 80.48 8.57 80.48 8.57 71.9 0 71.9 0 0 51.47 .42"/><rect class="cls-1" x="51.47" y="8.58" width="8.57" height="8.58"/><rect class="cls-1" x="51.47" y="17.16" width="8.57" height="8.58"/><rect class="cls-1" x="42.9" y="0" width="8.57" height="8.58"/><rect class="cls-1" x="42.9" y="8.58" width="8.57" height="8.58"/><rect class="cls-1" x="34.33" y="0" width="8.57" height="8.58"/><rect class="cls-1" x="8.57" y="41.95" width="42.9" height="8.58"/><rect class="cls-1" x="8.57" y="54.51" width="42.9" height="8.58"/><rect class="cls-1" x="8.57" y="29.25" width="21.46" height="8.58"/></svg>