<?xml version="1.0" encoding="UTF-8"?><svg id="Layer_1" xmlns="http://www.w3.org/2000/svg" viewBox="0 0 105.22 105.06"><defs><style>.cls-1{fill:#1d71b8;}.cls-2{fill:#36a9e1;}</style></defs><polygon class="cls-1" points="92.07 39.3 92.07 26.15 78.92 26.15 78.92 39.3 65.77 39.3 65.77 26.15 52.61 26.15 39.46 26.15 39.46 39.3 26.31 39.3 26.31 26.15 26.31 13.01 13.16 13.01 0 13.01 0 26.15 0 39.3 0 52.45 0 65.61 0 78.76 0 91.91 0 105.06 13.16 105.06 26.31 105.06 26.31 91.91 26.31 78.76 26.31 65.61 26.31 52.45 39.46 52.45 39.46 65.61 39.46 78.76 39.46 91.91 39.46 105.06 52.61 105.06 65.77 105.06 65.77 91.91 65.77 78.76 65.77 65.61 65.77 52.45 78.92 52.45 78.92 65.61 78.92 78.76 78.92 91.91 78.92 105.06 92.07 105.06 105.22 105.06 105.22 91.91 105.22 78.76 105.22 65.61 105.22 52.45 105.22 39.3 92.07 39.3"/><polygon class="cls-2" points="92.07 26.3 92.07 13.15 78.92 13.15 78.92 26.3 65.77 26.3 65.77 13.15 52.61 13.15 39.46 13.15 39.46 26.3 26.31 26.3 26.31 13.15 26.31 0 13.16 0 0 0 0 13.15 0 26.3 0 39.45 0 52.61 0 65.76 0 78.91 0 92.06 13.16 92.06 26.31 92.06 26.31 78.91 26.31 65.76 26.31 52.61 26.31 39.45 39.46 39.45 39.46 52.61 39.46 65.76 39.46 78.91 39.46 92.06 52.61 92.06 65.77 92.06 65.77 78.91 65.77 65.76 65.77 52.61 65.77 39.45 78.92 39.45 78.92 52.61 78.92 65.76 78.92 78.91 78.92 92.06 92.07 92.06 105.22 92.06 105.22 78.91 105.22 65.76 105.22 52.61 105.22 39.45 105.22 26.3 92.07 26.3"/></svg>