<?xml version="1.0" encoding="UTF-8"?><svg id="Layer_1" xmlns="http://www.w3.org/2000/svg" viewBox="0 0 175.32 198.24"><defs><style>.cls-1{fill:#1d71b8;}.cls-2{fill:#36a9e1;}</style></defs><polygon class="cls-1" points="175.32 99.23 175.32 109.13 160.42 109.13 160.42 119.03 143.52 119.03 143.52 128.93 125.72 128.93 125.72 138.84 107.81 138.84 107.81 148.74 90.01 148.74 90.01 158.64 72.21 158.64 72.21 168.54 54.41 168.54 54.41 178.44 36.61 178.44 36.61 188.34 19.8 188.34 19.8 198.24 0 198.24 0 10.12 19.8 10.12 19.8 20.02 36.61 20.02 36.61 29.92 54.41 29.92 54.41 39.83 72.21 39.83 72.21 49.73 90.01 49.73 90.01 59.63 107.81 59.63 107.81 69.53 125.72 69.53 125.72 79.43 143.52 79.43 143.52 89.33 160.42 89.33 160.42 99.23 175.32 99.23"/><polygon class="cls-2" points="175.32 89.11 175.32 99.01 160.42 99.01 160.42 108.91 143.52 108.91 143.52 118.81 125.72 118.81 125.72 128.72 107.81 128.72 107.81 138.62 90.01 138.62 90.01 148.52 72.21 148.52 72.21 158.42 54.41 158.42 54.41 168.32 36.61 168.32 36.61 178.22 19.8 178.22 19.8 188.12 0 188.12 0 0 19.8 0 19.8 9.9 36.61 9.9 36.61 19.8 54.41 19.8 54.41 29.71 72.21 29.71 72.21 39.61 90.01 39.61 90.01 49.51 107.81 49.51 107.81 59.41 125.72 59.41 125.72 69.31 143.52 69.31 143.52 79.21 160.42 79.21 160.42 89.11 175.32 89.11"/></svg>