<?xml version="1.0" encoding="UTF-8"?><svg id="Layer_1" xmlns="http://www.w3.org/2000/svg" viewBox="0 0 60.05 68.64"><defs><style>.cls-1{fill:#1d71b8;}.cls-2{fill:#36a9e1;}</style></defs><rect class="cls-1" x="51.47" y="51.48" width="8.58" height="8.58"/><rect class="cls-1" x="8.57" y="60.06" width="42.9" height="8.58"/><rect class="cls-1" y="51.48" width="8.57" height="8.58"/><rect class="cls-1" x="25.73" y="42.9" width="8.58" height="8.58"/><rect class="cls-1" x="25.73" y="8.58" width="8.58" height="8.58"/><path class="cls-2" d="m51.47,8.58V0H8.57v8.58H0v42.9h8.57v8.58h42.9v-8.58h8.58V8.58h-8.58Zm0,25.74h-8.58v8.58h-8.58v8.58h-8.58v-8.58h8.58v-8.58H8.57v-8.58h25.74v-8.58h-8.58v-8.58h8.58v8.58h8.58v8.58h8.58v8.58Z"/><polygon class="cls-1" points="51.47 25.74 51.47 34.32 42.89 34.32 42.89 42.9 34.31 42.9 34.31 34.32 8.57 34.32 8.57 25.74 34.31 25.74 34.31 17.16 42.89 17.16 42.89 25.74 51.47 25.74"/></svg>