<?xml version="1.0" encoding="UTF-8"?><svg id="Layer_1" xmlns="http://www.w3.org/2000/svg" viewBox="0 0 1032.9 112.26"><defs><style>.cls-1{fill:#1d71b8;}.cls-2{fill:#36a9e1;}</style></defs><rect class="cls-1" x="931.87" y="11.22" width="22.46" height="101.04"/><path class="cls-1" d="m909.42,22.44v-11.22h-33.68v11.22h-11.23v89.82h22.45v-22.45h11.23v22.45h22.46V22.44h-11.23Zm-11.23,44.91h-11.23v-33.68h11.23v33.68Z"/><polygon class="cls-1" points="853.27 11.22 853.27 33.67 830.82 33.67 830.82 112.26 808.36 112.26 808.36 33.67 785.92 33.67 785.92 11.22 853.27 11.22"/><polygon class="cls-1" points="774.68 11.22 774.68 112.26 752.23 112.26 752.23 101.03 741 101.03 741 78.58 729.77 78.58 729.77 112.26 707.32 112.26 707.32 11.22 729.77 11.22 729.77 22.44 741 22.44 741 44.9 752.23 44.9 752.23 11.22 774.68 11.22"/><polygon class="cls-1" points="696.1 11.22 696.1 101.03 684.86 101.03 684.86 112.26 651.18 112.26 651.18 101.03 639.96 101.03 639.96 11.22 662.42 11.22 662.42 89.81 673.64 89.81 673.64 11.22 696.1 11.22"/><path class="cls-1" d="m617.5,22.44v-11.22h-33.68v11.22h-11.23v78.59h11.23v11.23h33.68v-11.23h11.23V22.44h-11.23Zm-22.45,78.59V22.44h11.22v78.59h-11.22Z"/><polygon class="cls-1" points="561.36 11.22 561.36 112.26 538.92 112.26 538.92 56.12 527.68 56.12 527.68 67.35 505.23 67.35 505.23 56.12 494 56.12 494 112.26 471.55 112.26 471.55 11.22 494 11.22 494 22.44 505.23 22.44 505.23 33.67 527.68 33.67 527.68 22.44 538.92 22.44 538.92 11.22 561.36 11.22"/><polygon class="cls-1" points="437.86 22.44 437.86 44.9 415.42 44.9 415.42 33.67 404.18 33.67 404.18 56.12 426.64 56.12 426.64 67.35 437.86 67.35 437.86 101.03 426.64 101.03 426.64 112.26 392.96 112.26 392.96 101.03 381.73 101.03 381.73 78.58 404.18 78.58 404.18 89.81 415.42 89.81 415.42 67.35 392.96 67.35 392.96 56.12 381.73 56.12 381.73 22.44 392.96 22.44 392.96 11.22 426.64 11.22 426.64 22.44 437.86 22.44"/><polygon class="cls-1" points="370.5 22.44 370.5 44.9 348.05 44.9 348.05 33.67 336.82 33.67 336.82 56.12 359.27 56.12 359.27 67.35 370.5 67.35 370.5 101.03 359.27 101.03 359.27 112.26 325.6 112.26 325.6 101.03 314.37 101.03 314.37 78.58 336.82 78.58 336.82 89.81 348.05 89.81 348.05 67.35 325.6 67.35 325.6 56.12 314.37 56.12 314.37 22.44 325.6 22.44 325.6 11.22 359.27 11.22 359.27 22.44 370.5 22.44"/><polygon class="cls-1" points="303.14 11.22 303.14 33.67 280.68 33.67 280.68 44.9 303.14 44.9 303.14 67.35 280.68 67.35 280.68 89.81 303.14 89.81 303.14 112.26 258.23 112.26 258.23 11.22 303.14 11.22"/><polygon class="cls-1" points="247 89.81 247 112.26 202.1 112.26 202.1 11.22 224.55 11.22 224.55 89.81 247 89.81"/><path class="cls-1" d="m179.64,22.44v-11.22h-44.91v101.04h44.91v-11.23h11.23V22.44h-11.23Zm-22.46,78.59V22.44h11.23v78.59h-11.23Z"/><polygon class="cls-1" points="123.5 11.22 123.5 112.26 101.05 112.26 101.05 101.03 89.82 101.03 89.82 78.58 78.6 78.58 78.6 112.26 56.14 112.26 56.14 11.22 78.6 11.22 78.6 22.44 89.82 22.44 89.82 44.9 101.05 44.9 101.05 11.22 123.5 11.22"/><polygon class="cls-1" points="44.92 11.22 44.92 33.67 22.46 33.67 22.46 44.9 44.92 44.9 44.92 67.35 22.46 67.35 22.46 89.81 44.92 89.81 44.92 112.26 0 112.26 0 11.22 44.92 11.22"/><polygon class="cls-1" points="1032.9 11.22 1032.9 112.26 1010.45 112.26 1010.45 101.03 999.23 101.03 999.23 78.58 988 78.58 988 112.26 965.55 112.26 965.55 11.22 988 11.22 988 22.44 999.23 22.44 999.23 44.9 1010.45 44.9 1010.45 11.22 1032.9 11.22"/><rect class="cls-2" x="931.86" width="22.46" height="101.04"/><path class="cls-2" d="m909.41,11.22V0h-33.68v11.22h-11.23v89.82h22.45v-22.45h11.23v22.45h22.46V11.22h-11.23Zm-11.23,44.91h-11.23V22.45h11.23v33.68Z"/><polygon class="cls-2" points="853.27 0 853.27 22.45 830.82 22.45 830.82 101.04 808.36 101.04 808.36 22.45 785.91 22.45 785.91 0 853.27 0"/><polygon class="cls-2" points="774.68 0 774.68 101.04 752.23 101.04 752.23 89.81 741 89.81 741 67.36 729.77 67.36 729.77 101.04 707.32 101.04 707.32 0 729.77 0 729.77 11.22 741 11.22 741 33.68 752.23 33.68 752.23 0 774.68 0"/><polygon class="cls-2" points="696.09 0 696.09 89.81 684.86 89.81 684.86 101.04 651.18 101.04 651.18 89.81 639.96 89.81 639.96 0 662.41 0 662.41 78.59 673.64 78.59 673.64 0 696.09 0"/><path class="cls-2" d="m617.5,11.22V0h-33.68v11.22h-11.23v78.59h11.23v11.23h33.68v-11.23h11.23V11.22h-11.23Zm-22.45,78.59V11.22h11.22v78.59h-11.22Z"/><polygon class="cls-2" points="561.36 0 561.36 101.04 538.91 101.04 538.91 44.9 527.68 44.9 527.68 56.13 505.23 56.13 505.23 44.9 494 44.9 494 101.04 471.55 101.04 471.55 0 494 0 494 11.22 505.23 11.22 505.23 22.45 527.68 22.45 527.68 11.22 538.91 11.22 538.91 0 561.36 0"/><polygon class="cls-2" points="437.86 11.22 437.86 33.68 415.41 33.68 415.41 22.45 404.18 22.45 404.18 44.9 426.64 44.9 426.64 56.13 437.86 56.13 437.86 89.81 426.64 89.81 426.64 101.04 392.96 101.04 392.96 89.81 381.73 89.81 381.73 67.36 404.18 67.36 404.18 78.59 415.41 78.59 415.41 56.13 392.96 56.13 392.96 44.9 381.73 44.9 381.73 11.22 392.96 11.22 392.96 0 426.64 0 426.64 11.22 437.86 11.22"/><polygon class="cls-2" points="370.5 11.22 370.5 33.68 348.05 33.68 348.05 22.45 336.82 22.45 336.82 44.9 359.27 44.9 359.27 56.13 370.5 56.13 370.5 89.81 359.27 89.81 359.27 101.04 325.59 101.04 325.59 89.81 314.37 89.81 314.37 67.36 336.82 67.36 336.82 78.59 348.05 78.59 348.05 56.13 325.59 56.13 325.59 44.9 314.37 44.9 314.37 11.22 325.59 11.22 325.59 0 359.27 0 359.27 11.22 370.5 11.22"/><polygon class="cls-2" points="303.14 0 303.14 22.45 280.68 22.45 280.68 33.68 303.14 33.68 303.14 56.13 280.68 56.13 280.68 78.59 303.14 78.59 303.14 101.04 258.23 101.04 258.23 0 303.14 0"/><polygon class="cls-2" points="247 78.59 247 101.04 202.09 101.04 202.09 0 224.55 0 224.55 78.59 247 78.59"/><path class="cls-2" d="m179.64,11.22V0h-44.91v101.04h44.91v-11.23h11.23V11.22h-11.23Zm-22.46,78.59V11.22h11.23v78.59h-11.23Z"/><polygon class="cls-2" points="123.5 0 123.5 101.04 101.05 101.04 101.05 89.81 89.82 89.81 89.82 67.36 78.59 67.36 78.59 101.04 56.14 101.04 56.14 0 78.59 0 78.59 11.22 89.82 11.22 89.82 33.68 101.05 33.68 101.05 0 123.5 0"/><polygon class="cls-2" points="44.91 0 44.91 22.45 22.46 22.45 22.46 33.68 44.91 33.68 44.91 56.13 22.46 56.13 22.46 78.59 44.91 78.59 44.91 101.04 0 101.04 0 0 44.91 0"/><polygon class="cls-2" points="1032.9 0 1032.9 101.04 1010.45 101.04 1010.45 89.81 999.22 89.81 999.22 67.36 987.99 67.36 987.99 101.04 965.54 101.04 965.54 0 987.99 0 987.99 11.22 999.22 11.22 999.22 33.68 1010.45 33.68 1010.45 0 1032.9 0"/></svg>