<?xml version="1.0" encoding="UTF-8"?><svg id="Layer_1" xmlns="http://www.w3.org/2000/svg" viewBox="0 0 487.77 110.44"><defs><style>.cls-1{fill:#1d71b8;}.cls-2{fill:#36a9e1;}</style></defs><polygon class="cls-1" points="72.84 10.6 72.84 47.59 60.64 47.59 60.64 59.92 48.43 59.92 48.43 109.23 24.02 109.23 24.02 59.92 11.81 59.92 11.81 47.59 -.4 47.59 -.4 10.6 24.02 10.6 24.02 47.59 48.43 47.59 48.43 10.6 72.84 10.6"/><rect class="cls-1" x="307.46" y="9.4" width="22.46" height="101.04"/><polygon class="cls-1" points="207.84 9.4 207.84 99.21 196.61 99.21 196.61 110.44 162.93 110.44 162.93 99.21 151.71 99.21 151.71 9.4 174.16 9.4 174.16 87.99 185.39 87.99 185.39 9.4 207.84 9.4"/><path class="cls-1" d="m129.25,20.62v-11.22h-33.68v11.22h-11.23v78.59h11.23v11.23h33.68v-11.23h11.23V20.62h-11.23Zm-22.45,78.59V20.62h11.22v78.59h-11.22Z"/><path class="cls-1" d="m285,20.62v-11.22h-44.91v101.04h44.91v-11.23h11.23V20.62h-11.23Zm-22.46,78.59V20.62h11.23v78.59h-11.23Z"/><polygon class="cls-1" points="386.31 9.4 386.31 31.85 363.86 31.85 363.86 43.08 386.31 43.08 386.31 65.53 363.86 65.53 363.86 87.99 386.31 87.99 386.31 110.44 341.4 110.44 341.4 9.4 386.31 9.4"/><path class="cls-1" d="m442.45,20.62v-11.22h-44.91v101.04h44.91v-11.23h11.23V20.62h-11.23Zm-22.46,78.59V20.62h11.23v78.59h-11.23Z"/><rect class="cls-1" x="464.91" y="9.4" width="22.46" height="69.83"/><rect class="cls-1" x="464.91" y="87.98" width="22.46" height="22.46"/><polygon class="cls-2" points="73.24 0 73.24 36.99 61.04 36.99 61.04 49.32 48.83 49.32 48.83 98.63 24.42 98.63 24.42 49.32 12.21 49.32 12.21 36.99 0 36.99 0 0 24.42 0 24.42 36.99 48.83 36.99 48.83 0 73.24 0"/><rect class="cls-2" x="307.85" y="-1.21" width="22.46" height="101.04"/><polygon class="cls-2" points="208.24 -1.21 208.24 88.6 197.01 88.6 197.01 99.83 163.33 99.83 163.33 88.6 152.11 88.6 152.11 -1.21 174.56 -1.21 174.56 77.38 185.79 77.38 185.79 -1.21 208.24 -1.21"/><path class="cls-2" d="m129.65,10.01V-1.21h-33.68v11.22h-11.23v78.59h11.23v11.23h33.68v-11.23h11.23V10.01h-11.23Zm-22.45,78.59V10.01h11.22v78.59h-11.22Z"/><path class="cls-2" d="m285.39,10.01V-1.21h-44.91v101.04h44.91v-11.23h11.23V10.01h-11.23Zm-22.46,78.59V10.01h11.23v78.59h-11.23Z"/><polygon class="cls-2" points="386.71 -1.21 386.71 21.24 364.26 21.24 364.26 32.47 386.71 32.47 386.71 54.92 364.26 54.92 364.26 77.38 386.71 77.38 386.71 99.83 341.8 99.83 341.8 -1.21 386.71 -1.21"/><path class="cls-2" d="m442.85,10.01V-1.21h-44.91v101.04h44.91v-11.23h11.23V10.01h-11.23Zm-22.46,78.59V10.01h11.23v78.59h-11.23Z"/><rect class="cls-2" x="465.31" y="-1.21" width="22.46" height="69.83"/><rect class="cls-2" x="465.31" y="77.37" width="22.46" height="22.46"/></svg>