<?xml version="1.0" encoding="UTF-8"?><svg id="Layer_1" xmlns="http://www.w3.org/2000/svg" viewBox="0 0 65.76 118.23"><defs><style>.cls-1{fill:#1d71b8;}.cls-2{fill:#36a9e1;}</style></defs><polygon class="cls-1" points="39.46 26.17 52.61 26.17 65.76 26.17 65.76 13.01 52.61 13.01 39.46 13.01 26.31 13.01 13.15 13.01 0 13.01 0 26.17 0 39.31 0 52.47 0 65.61 13.15 65.61 26.31 65.61 26.31 52.47 39.46 52.47 39.46 65.61 39.46 78.78 39.46 91.92 39.46 105.08 26.31 105.08 26.31 91.92 26.31 78.78 13.15 78.78 0 78.78 0 91.92 0 105.08 13.15 105.08 13.15 118.23 26.31 118.23 39.46 118.23 52.61 118.23 52.61 105.08 65.76 105.08 65.76 91.92 65.76 78.78 65.76 65.61 65.76 52.47 52.61 52.47 52.61 39.31 39.46 39.31 26.31 39.31 26.31 26.17 39.46 26.17"/><polygon class="cls-2" points="39.46 13.16 52.61 13.16 65.76 13.16 65.76 0 52.61 0 39.46 0 26.31 0 13.15 0 0 0 0 13.16 0 26.31 0 39.46 0 52.61 13.15 52.61 26.31 52.61 26.31 39.46 39.46 39.46 39.46 52.61 39.46 65.77 39.46 78.92 39.46 92.07 26.31 92.07 26.31 78.92 26.31 65.77 13.15 65.77 0 65.77 0 78.92 0 92.07 13.15 92.07 13.15 105.22 26.31 105.22 39.46 105.22 52.61 105.22 52.61 92.07 65.76 92.07 65.76 78.92 65.76 65.77 65.76 52.61 65.76 39.46 52.61 39.46 52.61 26.31 39.46 26.31 26.31 26.31 26.31 13.16 39.46 13.16"/></svg>