<?xml version="1.0" encoding="UTF-8"?><svg id="Layer_1" xmlns="http://www.w3.org/2000/svg" viewBox="0 0 60.05 68.64"><defs><style>.cls-1{fill:#1d71b8;}.cls-2{fill:#36a9e1;}</style></defs><rect class="cls-1" y="51.48" width="8.58" height="8.58"/><rect class="cls-1" x="8.58" y="60.06" width="42.9" height="8.58"/><rect class="cls-1" x="51.48" y="51.48" width="8.57" height="8.58"/><rect class="cls-1" x="25.74" y="42.9" width="8.58" height="8.58"/><rect class="cls-1" x="25.74" y="8.58" width="8.58" height="8.58"/><path class="cls-2" d="m8.58,8.58V0h42.9v8.58h8.57v42.9h-8.57v8.58H8.58v-8.58H0V8.58h8.58Zm0,25.74h8.58v8.58h8.58v8.58h8.58v-8.58h-8.58v-8.58h25.74v-8.58h-25.74v-8.58h8.58v-8.58h-8.58v8.58h-8.58v8.58h-8.58v8.58Z"/><polygon class="cls-1" points="8.58 25.74 8.58 34.32 17.16 34.32 17.16 42.9 25.74 42.9 25.74 34.32 51.48 34.32 51.48 25.74 25.74 25.74 25.74 17.16 17.16 17.16 17.16 25.74 8.58 25.74"/></svg>