<?xml version="1.0" encoding="UTF-8"?><svg id="Layer_1" xmlns="http://www.w3.org/2000/svg" viewBox="0 0 257.37 85.79"><defs><style>.cls-1{fill:#1d71b8;}.cls-2{fill:#36a9e1;}</style></defs><rect class="cls-1" x="248.79" y="68.63" width="8.58" height="8.58"/><rect class="cls-2" x="128.68" y="25.73" width="8.58" height="8.58"/><rect class="cls-1" x="128.68" y="17.15" width="8.58" height="8.58"/><rect class="cls-1" x="102.95" y="25.73" width="8.58" height="8.58"/><rect class="cls-2" x="85.79" y="25.73" width="17.16" height="8.58"/><path class="cls-2" d="m248.79,8.58V0H8.58v8.58H0v60.05h8.58v8.58h240.21v-8.58h8.58V8.58h-8.58ZM68.63,25.73h-17.16v8.58h17.16v17.16h-8.58v8.58h-17.16v-8.58h17.16v-8.58h-17.16v-17.16h8.58v-8.58h17.16v8.58Zm42.9,8.58h-8.58v8.58h-17.16v17.16h-8.58V17.15h25.74v8.58h8.58v8.58Zm34.31,25.74h-8.58v-17.16h-8.58v17.16h-8.57V25.73h8.57v-8.58h8.58v8.58h8.58v34.32Zm34.32-34.32h-17.16v25.74h17.16v8.58h-17.16v-8.58h-8.58v-25.74h8.58v-8.58h17.16v8.58Zm34.32,0h-17.16v8.58h8.58v8.58h-8.58v8.58h17.16v8.58h-25.74V25.73h8.58v-8.58h17.16v8.58Z"/><polygon class="cls-1" points="214.48 51.47 214.48 60.05 188.74 60.05 188.74 25.73 197.32 25.73 197.32 34.31 205.9 34.31 205.9 42.89 197.32 42.89 197.32 51.47 214.48 51.47"/><rect class="cls-1" x="197.32" y="17.15" width="17.16" height="8.58"/><rect class="cls-1" x="163" y="51.47" width="17.16" height="8.58"/><rect class="cls-1" x="154.42" y="25.73" width="8.58" height="25.74"/><rect class="cls-1" x="163" y="17.15" width="17.16" height="8.58"/><polygon class="cls-1" points="145.84 25.73 145.84 60.05 137.26 60.05 137.26 42.89 128.68 42.89 128.68 60.05 120.11 60.05 120.11 25.73 128.68 25.73 128.68 34.31 137.26 34.31 137.26 25.73 145.84 25.73"/><polygon class="cls-1" points="85.79 25.73 85.79 34.31 102.95 34.31 102.95 42.89 85.79 42.89 85.79 60.05 77.21 60.05 77.21 17.15 102.95 17.15 102.95 25.73 85.79 25.73"/><rect class="cls-1" x="42.89" y="51.47" width="17.16" height="8.58"/><polygon class="cls-1" points="68.63 34.31 68.63 51.47 60.05 51.47 60.05 42.89 42.89 42.89 42.89 25.73 51.47 25.73 51.47 34.31 68.63 34.31"/><rect class="cls-1" x="51.47" y="17.15" width="17.16" height="8.58"/><rect class="cls-1" x="8.58" y="77.21" width="240.21" height="8.58"/><rect class="cls-1" y="68.63" width="8.58" height="8.58"/></svg>