<?xml version="1.0" encoding="UTF-8"?><svg id="Layer_1" xmlns="http://www.w3.org/2000/svg" viewBox="0 0 65.76 118.23"><defs><style>.cls-1{fill:#1d71b8;}.cls-2{fill:#36a9e1;}</style></defs><polygon class="cls-1" points="52.61 13.01 39.45 13.01 26.3 13.01 13.15 13.01 0 13.01 0 26.17 13.15 26.17 26.3 26.17 39.45 26.17 39.45 39.31 26.3 39.31 26.3 52.47 26.3 65.61 26.3 78.78 13.15 78.78 13.15 91.92 13.15 105.08 13.15 118.23 26.3 118.23 39.45 118.23 39.45 105.08 39.45 91.92 39.45 78.78 52.61 78.78 52.61 65.61 52.61 52.47 52.61 39.31 65.76 39.31 65.76 26.17 65.76 13.01 52.61 13.01"/><polygon class="cls-2" points="52.61 0 39.45 0 26.3 0 13.15 0 0 0 0 13.16 13.15 13.16 26.3 13.16 39.45 13.16 39.45 26.31 26.3 26.31 26.3 39.46 26.3 52.61 26.3 65.77 13.15 65.77 13.15 78.92 13.15 92.07 13.15 105.22 26.3 105.22 39.45 105.22 39.45 92.07 39.45 78.92 39.45 65.77 52.61 65.77 52.61 52.61 52.61 39.46 52.61 26.31 65.76 26.31 65.76 13.16 65.76 0 52.61 0"/></svg>