<?xml version="1.0" encoding="UTF-8"?><svg id="Layer_1" xmlns="http://www.w3.org/2000/svg" viewBox="0 0 65.76 118.3"><defs><style>.cls-1{fill:#1d71b8;}.cls-2{fill:#36a9e1;}</style></defs><path class="cls-1" d="m52.61,26.17v-13.16H13.15v13.16H0v26.3h13.15v13.15H0v39.46h13.15v13.15h39.46v-13.15h13.15v-39.46h-13.15v-13.15h13.15v-26.3h-13.15Zm-13.15,52.61v26.3h-13.15v-39.46h13.15v13.16Zm-13.15-26.31v-26.3h13.15v26.3h-13.15Z"/><path class="cls-2" d="m52.61,13.16V0H13.15v13.16H0v26.3h13.15v13.15H0v39.46h13.15v13.15h39.46v-13.15h13.15v-39.46h-13.15v-13.15h13.15V13.16h-13.15Zm-13.15,52.61v26.3h-13.15v-39.46h13.15v13.16Zm-13.15-26.31V13.16h13.15v26.3h-13.15Z"/></svg>